<?xml version="1.0" encoding="utf-8"?>
<!-- Generator: Adobe Illustrator 25.4.1, SVG Export Plug-In . SVG Version: 6.00 Build 0)  -->
<svg version="1.1" id="svg898" xmlns="http://www.w3.org/2000/svg" xmlns:xlink="http://www.w3.org/1999/xlink" x="0px" y="0px"
	 viewBox="0 0 364 72" style="enable-background:new 0 0 364 72;" xml:space="preserve">
<style type="text/css">
	.st0{fill:#FF2AD4;}
	.st1{fill:#FFCC00;}
	.st2{fill:#FFFFFF;}
</style>
<g id="Layer_2_00000121252356112380933760000009472205261639502760_">
	<g id="Brand">
		<path class="st0" d="M315.2,24.7L315.2,24.7c-2.9-3-6.9-4.7-11.1-4.7c-8.8,0-15.9,7.1-15.9,15.9c0,0,0,0,0,0.1
			c-0.1,8.8,7,15.9,15.8,16c4.2,0,8.2-1.6,11.2-4.6l0,0c3-3,4.7-7.1,4.6-11.3C320,31.9,318.2,27.7,315.2,24.7z M311.2,43.4
			L311.2,43.4c-1.8,1.9-4.3,3-7,3c-2.4,0-4.6-0.8-6.5-2.3c-2.4-1.9-3.8-4.9-3.6-8c-0.1-2.8,0.9-5.5,2.9-7.5c3.9-3.9,10.2-3.9,14.1,0
			l0.1,0.1c1.9,2,2.9,4.6,2.9,7.4C314.1,38.8,313.1,41.5,311.2,43.4L311.2,43.4z"/>
		<path class="st0" d="M282.6,34.6c1-1.6,1.6-3.4,1.5-5.3c0-1.8-0.4-3.6-1.4-5.2c-0.9-1.4-2.1-2.5-3.6-3.1s-4-0.9-7.6-0.9h-11.2V52
			h6.1V38.5h5.3L279,52h6.7l-7.6-14.2C279.9,37.2,281.5,36.1,282.6,34.6z M277.1,31.8L277.1,31.8c-0.7,0.5-1.1,0.8-3,0.8h-7.7V26
			h7.4c0.8-0.1,1.6,0,2.4,0.3c0.6,0.2,1.1,0.6,1.5,1.1s0.6,1.2,0.5,1.8C278.4,30.2,278,31.2,277.1,31.8z"/>
		<polygon class="st0" points="233.1,52 253.9,52 253.9,46 239.1,46 239.1,38.4 253.9,38.4 253.9,32.5 239.1,32.5 239.1,26 
			253.9,26 253.9,20 233.1,20 		"/>
		<polygon class="st0" points="220.6,41.1 206.9,20 201.1,20 201.1,52 207.1,52 207.1,31 220.9,52 226.6,52 226.6,20 220.6,20 		"/>
		<path class="st0" d="M152.1,24.7c-2.9-3-6.9-4.7-11.1-4.7c-5.7,0-10.9,3.1-13.8,8c-4.5,7.6-1.9,17.3,5.7,21.8
			c6.2,3.6,14.1,2.7,19.2-2.4l0.1-0.1c3-3,4.7-7.1,4.6-11.3C156.9,31.8,155.1,27.7,152.1,24.7L152.1,24.7z M148.1,43.4L148.1,43.4
			c-1.8,1.9-4.3,3-7,3c-2.4,0-4.6-0.8-6.5-2.3c-2.4-1.9-3.8-4.9-3.6-8c-0.1-2.8,0.9-5.5,2.9-7.5c3.9-3.9,10.2-3.9,14.1,0l0.1,0.1
			C151.9,32.9,151.9,39.3,148.1,43.4L148.1,43.4z"/>
		<polygon class="st0" points="113.4,40.2 106.8,20 101.3,20 94.6,40.2 91.2,20 85.2,20 90.7,52 96.4,52 103.9,29.7 111.3,52 
			117.3,52 122.8,20 116.9,20 		"/>
		<polygon class="st0" points="187.1,40.2 180.4,20 175.1,20 168.2,40.2 164.8,20 158.9,20 164.2,52 170.1,52 177.6,29.7 185.1,52 
			191.1,52 196.6,20 190.6,20 		"/>
	</g>
</g>
<path class="st1" d="M188.9,23.4"/>
<path class="st1" d="M144.9,20.7"/>
<g>
	<path id="path6" class="st0" d="M74.8,24C67.8,7.8,49,0.1,32.8,7s-23.8,25.7-17,42s25.7,23.9,41.9,17c7.7-3.2,13.8-9.3,17-17
		C78.1,41,78.1,32,74.8,24z"/>
	<g>
		<path class="st2" d="M73.7,34.5V34H58.5l-0.1,11.3L48,35.3l18.6-17.8c-2.3-2.5-4.9-4.6-7.9-6.2C52,7.8,44.2,7.1,37,9.3
			c-5,1.6-9.4,4.4-12.9,8.3l18.6,17.7l-10.5,10V34H16.9v0.5c-0.9,13.2,7.3,25.2,20,29.2c7.2,2.2,15.1,1.5,21.7-2
			c6.7-3.5,11.7-9.5,14-16.8c0.8-2.7,1.3-5.6,1.3-8.4C73.8,35.8,73.8,35.2,73.7,34.5z M29.4,17.6l0.9-0.7c4.3-3.3,9.5-5.1,15-5.1
			s10.7,1.7,15,5.1l0.9,0.7l-16,15.2L29.4,17.6z M69.8,38.9c-2.3,13.5-11.1,22.4-24.6,22.3s-23.4-9.3-24.6-22.3l-0.1-1.1l7.8-0.1V54
			l17-16.1L62.2,54V37.8h7.7L69.8,38.9z"/>
		<path class="st1" d="M45.2,27.5l-9.6-9.1c0,0,3.1-3.3,9.6-3.2c6.4,0.1,9.6,3.2,9.6,3.2L45.2,27.5z"/>
		<path class="st1" d="M56.7,53.9c0,0-5.1,3.5-11.6,3.6s-11.5-3.6-11.5-3.6l11.5-11L56.7,53.9z"/>
		<path class="st1" d="M65.3,30.7c-0.1-1.8-0.9-4.3-1.9-5.1l-4.9,5.1H65.3z"/>
		<path class="st1" d="M32.1,30.7l-4.9-5.1c-1,0.8-1.8,3.3-1.9,5.1H32.1z"/>
	</g>
</g>
<path class="st2" d="M113.2,36.7v0.5"/>
<g>
	<path class="st0" d="M322.8,20h6.9l6.7,10.3l6.7-10.3h6.8l-10.2,15.5L350.5,52h-6.9l-7.4-11.3L329,52h-6.9l10.8-16.5L322.8,20z"/>
</g>
</svg>
